<svg width="742" height="98" viewBox="0 0 742 98" fill="none" xmlns="http://www.w3.org/2000/svg">
<rect x="0" y="0" width="14" height="14" fill="#202020"/>
<rect x="14" y="0" width="14" height="14" fill="#202020"/>
<rect x="28" y="0" width="14" height="14" fill="#202020"/>
<rect x="42" y="0" width="14" height="14" fill="#202020"/>
<rect x="0" y="14" width="14" height="14" fill="#202020"/>
<rect x="56" y="14" width="14" height="14" fill="#202020"/>
<rect x="0" y="28" width="14" height="14" fill="#202020"/>
<rect x="56" y="28" width="14" height="14" fill="#202020"/>
<rect x="0" y="42" width="14" height="14" fill="#202020"/>
<rect x="14" y="42" width="14" height="14" fill="#202020"/>
<rect x="28" y="42" width="14" height="14" fill="#202020"/>
<rect x="42" y="42" width="14" height="14" fill="#202020"/>
<rect x="0" y="56" width="14" height="14" fill="#202020"/>
<rect x="56" y="56" width="14" height="14" fill="#202020"/>
<rect x="0" y="70" width="14" height="14" fill="#202020"/>
<rect x="56" y="70" width="14" height="14" fill="#202020"/>
<rect x="0" y="84" width="14" height="14" fill="#202020"/>
<rect x="14" y="84" width="14" height="14" fill="#202020"/>
<rect x="28" y="84" width="14" height="14" fill="#202020"/>
<rect x="42" y="84" width="14" height="14" fill="#202020"/>
<rect x="84" y="0" width="14" height="14" fill="#202020"/>
<rect x="140" y="0" width="14" height="14" fill="#202020"/>
<rect x="84" y="14" width="14" height="14" fill="#202020"/>
<rect x="140" y="14" width="14" height="14" fill="#202020"/>
<rect x="84" y="28" width="14" height="14" fill="#202020"/>
<rect x="140" y="28" width="14" height="14" fill="#202020"/>
<rect x="84" y="42" width="14" height="14" fill="#202020"/>
<rect x="140" y="42" width="14" height="14" fill="#202020"/>
<rect x="84" y="56" width="14" height="14" fill="#202020"/>
<rect x="140" y="56" width="14" height="14" fill="#202020"/>
<rect x="84" y="70" width="14" height="14" fill="#202020"/>
<rect x="140" y="70" width="14" height="14" fill="#202020"/>
<rect x="84" y="84" width="14" height="14" fill="#202020"/>
<rect x="98" y="84" width="14" height="14" fill="#202020"/>
<rect x="112" y="84" width="14" height="14" fill="#202020"/>
<rect x="126" y="84" width="14" height="14" fill="#202020"/>
<rect x="140" y="84" width="14" height="14" fill="#202020"/>
<rect x="168" y="0" width="14" height="14" fill="#202020"/>
<rect x="182" y="0" width="14" height="14" fill="#202020"/>
<rect x="196" y="0" width="14" height="14" fill="#202020"/>
<rect x="210" y="0" width="14" height="14" fill="#202020"/>
<rect x="224" y="0" width="14" height="14" fill="#202020"/>
<rect x="196" y="14" width="14" height="14" fill="#202020"/>
<rect x="196" y="28" width="14" height="14" fill="#202020"/>
<rect x="196" y="42" width="14" height="14" fill="#202020"/>
<rect x="196" y="56" width="14" height="14" fill="#202020"/>
<rect x="196" y="70" width="14" height="14" fill="#202020"/>
<rect x="168" y="84" width="14" height="14" fill="#202020"/>
<rect x="182" y="84" width="14" height="14" fill="#202020"/>
<rect x="196" y="84" width="14" height="14" fill="#202020"/>
<rect x="210" y="84" width="14" height="14" fill="#202020"/>
<rect x="224" y="84" width="14" height="14" fill="#202020"/>
<rect x="252" y="0" width="14" height="14" fill="#202020"/>
<rect x="266" y="0" width="14" height="14" fill="#202020"/>
<rect x="280" y="0" width="14" height="14" fill="#202020"/>
<rect x="294" y="0" width="14" height="14" fill="#202020"/>
<rect x="252" y="14" width="14" height="14" fill="#202020"/>
<rect x="308" y="14" width="14" height="14" fill="#202020"/>
<rect x="252" y="28" width="14" height="14" fill="#202020"/>
<rect x="308" y="28" width="14" height="14" fill="#202020"/>
<rect x="252" y="42" width="14" height="14" fill="#202020"/>
<rect x="308" y="42" width="14" height="14" fill="#202020"/>
<rect x="252" y="56" width="14" height="14" fill="#202020"/>
<rect x="308" y="56" width="14" height="14" fill="#202020"/>
<rect x="252" y="70" width="14" height="14" fill="#202020"/>
<rect x="308" y="70" width="14" height="14" fill="#202020"/>
<rect x="252" y="84" width="14" height="14" fill="#202020"/>
<rect x="266" y="84" width="14" height="14" fill="#202020"/>
<rect x="280" y="84" width="14" height="14" fill="#202020"/>
<rect x="294" y="84" width="14" height="14" fill="#202020"/>
<rect x="336" y="0" width="14" height="14" fill="#202020"/>
<rect x="336" y="14" width="14" height="14" fill="#202020"/>
<rect x="336" y="28" width="14" height="14" fill="#202020"/>
<rect x="336" y="42" width="14" height="14" fill="#202020"/>
<rect x="336" y="56" width="14" height="14" fill="#202020"/>
<rect x="336" y="70" width="14" height="14" fill="#202020"/>
<rect x="336" y="84" width="14" height="14" fill="#202020"/>
<rect x="350" y="84" width="14" height="14" fill="#202020"/>
<rect x="364" y="84" width="14" height="14" fill="#202020"/>
<rect x="378" y="84" width="14" height="14" fill="#202020"/>
<rect x="392" y="84" width="14" height="14" fill="#202020"/>
<rect x="476" y="0" width="14" height="14" fill="#202020"/>
<rect x="532" y="0" width="14" height="14" fill="#202020"/>
<rect x="476" y="14" width="14" height="14" fill="#202020"/>
<rect x="490" y="14" width="14" height="14" fill="#202020"/>
<rect x="532" y="14" width="14" height="14" fill="#202020"/>
<rect x="476" y="28" width="14" height="14" fill="#202020"/>
<rect x="504" y="28" width="14" height="14" fill="#202020"/>
<rect x="532" y="28" width="14" height="14" fill="#202020"/>
<rect x="476" y="42" width="14" height="14" fill="#202020"/>
<rect x="518" y="42" width="14" height="14" fill="#202020"/>
<rect x="532" y="42" width="14" height="14" fill="#202020"/>
<rect x="476" y="56" width="14" height="14" fill="#202020"/>
<rect x="532" y="56" width="14" height="14" fill="#202020"/>
<rect x="476" y="70" width="14" height="14" fill="#202020"/>
<rect x="532" y="70" width="14" height="14" fill="#202020"/>
<rect x="476" y="84" width="14" height="14" fill="#202020"/>
<rect x="532" y="84" width="14" height="14" fill="#202020"/>
<rect x="574" y="0" width="14" height="14" fill="#202020"/>
<rect x="588" y="0" width="14" height="14" fill="#202020"/>
<rect x="602" y="0" width="14" height="14" fill="#202020"/>
<rect x="560" y="14" width="14" height="14" fill="#202020"/>
<rect x="616" y="14" width="14" height="14" fill="#202020"/>
<rect x="560" y="28" width="14" height="14" fill="#202020"/>
<rect x="616" y="28" width="14" height="14" fill="#202020"/>
<rect x="560" y="42" width="14" height="14" fill="#202020"/>
<rect x="616" y="42" width="14" height="14" fill="#202020"/>
<rect x="560" y="56" width="14" height="14" fill="#202020"/>
<rect x="616" y="56" width="14" height="14" fill="#202020"/>
<rect x="560" y="70" width="14" height="14" fill="#202020"/>
<rect x="616" y="70" width="14" height="14" fill="#202020"/>
<rect x="574" y="84" width="14" height="14" fill="#202020"/>
<rect x="588" y="84" width="14" height="14" fill="#202020"/>
<rect x="602" y="84" width="14" height="14" fill="#202020"/>
<rect x="644" y="0" width="14" height="14" fill="#202020"/>
<rect x="700" y="0" width="14" height="14" fill="#202020"/>
<rect x="644" y="14" width="14" height="14" fill="#202020"/>
<rect x="700" y="14" width="14" height="14" fill="#202020"/>
<rect x="644" y="28" width="14" height="14" fill="#202020"/>
<rect x="700" y="28" width="14" height="14" fill="#202020"/>
<rect x="644" y="42" width="14" height="14" fill="#202020"/>
<rect x="672" y="42" width="14" height="14" fill="#202020"/>
<rect x="700" y="42" width="14" height="14" fill="#202020"/>
<rect x="644" y="56" width="14" height="14" fill="#202020"/>
<rect x="672" y="56" width="14" height="14" fill="#202020"/>
<rect x="700" y="56" width="14" height="14" fill="#202020"/>
<rect x="644" y="70" width="14" height="14" fill="#202020"/>
<rect x="672" y="70" width="14" height="14" fill="#202020"/>
<rect x="700" y="70" width="14" height="14" fill="#202020"/>
<rect x="658" y="84" width="14" height="14" fill="#202020"/>
<rect x="686" y="84" width="14" height="14" fill="#202020"/>
<rect x="728" y="0" width="14" height="14" fill="#202020"/>
<rect x="728" y="14" width="14" height="14" fill="#202020"/>
<rect x="728" y="28" width="14" height="14" fill="#202020"/>
<rect x="728" y="42" width="14" height="14" fill="#202020"/>
<rect x="728" y="56" width="14" height="14" fill="#202020"/>
<rect x="728" y="84" width="14" height="14" fill="#202020"/>
</svg>