<?xml version="1.0" encoding="UTF-8" standalone="no"?>
<!-- Created with Inkscape (http://www.inkscape.org/) -->

<svg
   width="1080"
   height="1080"
   viewBox="0 0 285.75 285.75"
   version="1.1"
   id="svg1"
   xml:space="preserve"
   inkscape:export-filename="bitmap.svg"
   inkscape:export-xdpi="96"
   inkscape:export-ydpi="96"
   xmlns:inkscape="http://www.inkscape.org/namespaces/inkscape"
   xmlns:sodipodi="http://sodipodi.sourceforge.net/DTD/sodipodi-0.dtd"
   xmlns="http://www.w3.org/2000/svg"
   xmlns:svg="http://www.w3.org/2000/svg"><sodipodi:namedview
     id="namedview1"
     pagecolor="#ffffff"
     bordercolor="#000000"
     borderopacity="0.25"
     inkscape:showpageshadow="2"
     inkscape:pageopacity="0.0"
     inkscape:pagecheckerboard="0"
     inkscape:deskcolor="#d1d1d1"
     inkscape:document-units="mm"
     inkscape:zoom="0.43299142"
     inkscape:cx="607.40234"
     inkscape:cy="600.47379"
     inkscape:window-width="1296"
     inkscape:window-height="901"
     inkscape:window-x="1647"
     inkscape:window-y="618"
     inkscape:window-maximized="0"
     inkscape:current-layer="layer1"><inkscape:page
       x="0"
       y="0"
       width="285.75"
       height="285.75"
       id="page2"
       margin="0"
       bleed="0" /></sodipodi:namedview><defs
     id="defs1" /><g
     inkscape:label="Layer 1"
     inkscape:groupmode="layer"
     id="layer1"><path
       style="fill:#ffffff;stroke-width:1.73923"
       d="m 164.85459,274.71448 c -3.74323,-3.77822 -8.00511,-5.839 -14.15748,-6.84571 -4.22602,-0.69148 -4.82037,-0.91047 -5.81762,-2.14337 -1.23046,-1.52121 -3.01705,-6.91801 -4.40402,-13.30319 -0.63165,-2.90801 -0.95809,-6.48152 -1.07507,-11.76886 -0.13549,-6.12659 -0.29543,-7.6196 -0.82796,-7.73138 -0.39324,-0.0826 -0.86748,0.45666 -1.17338,1.33415 -0.6533,1.87411 -0.66767,12.29613 -0.0217,15.79028 0.43438,2.34973 0.39418,2.76728 -0.34511,3.58477 -1.4776,1.63389 -4.36657,2.80264 -7.0491,2.85177 l -2.53094,0.0463 0.06,-2.07076 c 0.40157,-13.83989 1.14095,-25.34116 1.73772,-27.03075 1.11182,-3.14782 2.88678,-5.8289 5.48693,-8.288 2.97708,-2.81561 4.74652,-3.76539 7.65711,-4.11011 3.01734,-0.35736 4.3077,0.0386 6.45862,1.98182 2.18951,1.97809 2.75234,3.75162 2.75662,8.68629 0.002,2.02476 0.31325,5.44153 0.69219,7.59284 0.89745,5.09482 0.87938,13.92256 -0.0395,19.27159 -0.40134,2.33645 -0.61134,4.5566 -0.46663,4.93368 0.60897,1.58698 7.74278,3.1926 16.0724,3.61748 10.83275,0.55256 18.3498,2.27687 18.63347,4.27423 0.19069,1.34259 -0.4139,1.32549 -4.76355,-0.13461 -4.23589,-1.42195 -9.65374,-2.06588 -9.33494,-1.10951 0.11479,0.34444 1.85131,1.27009 3.85889,2.05701 6.22934,2.44174 9.02897,4.93462 7.38645,6.57713 -0.60455,0.60456 -0.94092,0.51831 -2.91211,-0.7466 -3.12407,-2.00471 -7.6027,-3.59772 -12.50693,-4.44861 -2.30477,-0.39988 -4.50171,-0.8465 -4.8821,-0.99246 -0.44194,-0.16957 -0.69162,0.007 -0.69162,0.48854 0,0.41465 0.36238,0.88582 0.80531,1.04705 1.75026,0.63706 4.59942,2.9105 5.77685,4.60952 1.33853,1.93149 1.56459,3.30385 0.68856,4.17988 -1.08012,1.0801 -2.38016,0.51603 -5.07145,-2.20042 z m -16.51527,-10.7614 c 0.39331,-0.4739 0.37502,-0.75135 -0.0741,-1.1241 -0.79544,-0.66016 -1.92867,0.075 -1.56729,1.0166 0.34642,0.90275 0.9487,0.9422 1.64144,0.10749 z m -6.16165,-41.24644 c 0.38518,-0.62323 -0.13461,-1.38051 -0.94749,-1.38051 -0.36472,0 -0.6631,0.41416 -0.6631,0.92035 0,0.9527 1.11017,1.26988 1.61059,0.46016 z m 2.53095,-1.64895 c 0,-0.40073 -0.24591,-0.64663 -0.54646,-0.54645 -0.85325,0.28442 -0.99478,1.27505 -0.18215,1.27505 0.40073,0 0.72861,-0.32786 0.72861,-0.7286 z m -54.637867,53.40737 c -17.83847,-1.62118 -37.11183,-4.44108 -38.43191,-5.62301 -1.05616,-0.94564 -1.02769,-2.99552 0.0553,-3.97554 0.47328,-0.42832 2.69936,-1.2735 4.94685,-1.8782 11.13966,-2.99713 17.36121,-5.95576 21.22883,-10.09525 4.79369,-5.13063 6.37931,-9.20647 8.87915,-22.82367 2.74193,-14.93606 9.18066,-42.06908 11.50093,-48.46535 1.712,-4.71945 8.943447,-19.52285 13.752857,-28.15327 1.83352,-3.29023 5.12789,-8.63795 7.3208,-11.88383 2.19293,-3.24586 4.34253,-6.54637 4.7769,-7.33443 0.43438,-0.78807 1.20286,-1.84592 1.70772,-2.3508 0.90233,-0.90232 0.92275,-0.9028 1.19917,-0.0284 0.46147,1.45988 0.92391,2.18174 1.71905,2.68329 1.22362,0.77185 1.40736,0.0122 0.54379,-2.24932 -1.08053,-2.82935 -1.12944,-5.95163 -0.10922,-6.97213 0.90082,-0.90108 0.7042,-1.25684 2.20575,3.99093 1.12325,3.92566 2.41529,6.02968 3.21403,5.23386 0.36734,-0.36603 0.18526,-1.45844 -0.66541,-3.9926 -2.72477,-8.11692 -0.57731,-16.69431 5.92993,-23.68532 2.14202,-2.30129 2.53978,-2.55123 3.19485,-2.00758 0.41152,0.34153 0.74821,0.86227 0.74821,1.15721 0,0.29494 0.58532,1.23738 1.30071,2.0943 0.93668,1.12199 1.52958,1.47021 2.11852,1.24421 0.56382,-0.21636 0.71343,-0.56271 0.48173,-1.11525 -2.52502,-6.02138 -3.21706,-11.000886 -2.10356,-15.136085 1.4605,-5.423832 5.93153,-8.819771 10.93243,-8.303636 4.79268,0.494655 9.59503,3.82906 12.22413,8.48756 2.09139,3.705765 4.11359,2.953582 2.19101,-0.814987 -0.54436,-1.06702 -0.81765,-2.095654 -0.60732,-2.285822 0.67079,-0.606522 17.66885,-1.313538 20.5852,-0.856224 1.48574,0.232988 3.82031,0.952978 5.18794,1.599972 2.44849,1.158312 4.08928,1.183235 3.71653,0.05635 -0.10453,-0.316244 -0.79485,-0.881321 -1.53383,-1.255743 -3.39587,-1.72057 -3.40726,-1.733319 -2.88654,-3.227059 0.26557,-0.761819 1.38828,-2.392175 2.4949,-3.623013 3.8783,-4.313589 9.59783,-5.587959 14.26289,-3.177922 2.71072,1.400392 5.449,4.255673 6.67897,6.964336 1.18048,2.5997 1.15713,7.183431 -0.0544,10.690002 l -0.93915,2.718041 1.0542,0.69025 c 0.57979,0.37964 1.9669,1.51857 3.08244,2.53094 6.62621,6.01342 6.28672,9.40823 -1.68088,16.80765 -3.19014,2.96266 -3.89138,3.89531 -4.85625,6.45871 -3.32881,8.84384 -11.31235,20.26664 -16.84371,24.09987 -1.06597,0.73872 -1.88611,1.68006 -1.88611,2.16484 0,1.0882 0.32806,1.07514 2.23772,-0.089 0.85111,-0.51888 1.64203,-0.84885 1.7576,-0.73328 0.11566,0.11566 -0.0402,1.48216 -0.34597,3.03683 -0.74726,3.79827 -0.0988,7.54049 2.61217,15.07645 1.16445,3.23686 2.90932,8.08085 3.87748,10.76444 2.31139,6.40672 3.206,10.92139 3.206,16.17917 0,3.93888 -0.1101,4.47317 -1.3077,6.34678 -2.54569,3.98263 -7.90279,8.53415 -15.69541,13.33518 -3.1494,1.94034 -4.98175,3.44719 -6.46566,5.31713 -2.46492,3.10609 -8.95146,9.29813 -10.46074,9.98582 -2.91152,1.32657 -2.21871,-2.46887 1.03322,-5.6604 1.79741,-1.76402 2.6152,-3.2153 1.81181,-3.2153 -1.38738,0 -4.26484,2.63572 -8.66602,7.93798 -2.15973,2.60189 -3.27444,3.15333 -4.30038,2.12737 -1.13878,-1.13878 1.33699,-4.84962 6.48499,-9.72017 5.01004,-4.74 1.30907,-3.52685 -4.83219,1.58397 -2.94275,2.44898 -3.38057,2.59767 -4.03706,1.37097 -0.92901,-1.73584 1.20753,-3.97649 8.3559,-8.76305 4.32144,-2.89365 4.57138,-3.7405 1.10405,-3.7405 -3.1594,0 -5.36065,-0.75411 -5.36065,-1.83647 0,-0.45436 0.36239,-0.99111 0.8053,-1.19279 0.44292,-0.2017 4.55759,-0.48269 9.14371,-0.62445 l 8.33839,-0.25776 6.2865,-4.25659 c 4.43214,-3.001 6.68946,-4.25658 7.65258,-4.25658 1.87795,0 1.75975,-0.74326 -0.73034,-4.59255 -3.8868,-6.00841 -4.60126,-8.80368 -3.80097,-14.87129 0.72079,-5.46491 0.73856,-7.78641 0.0614,-8.01708 -0.89573,-0.30512 -1.38649,1.18309 -2.43232,7.37615 -1.34667,7.97435 -6.96573,24.28905 -8.74414,25.38817 -1.25701,0.77688 -9.94128,0.22335 -13.8408,-0.88219 -4.65218,-1.31893 -14.18118,-4.21035 -15.19564,-4.61088 -1.27696,-0.50415 -2.68749,-4.2447 -3.43072,-9.09787 -1.3342,-8.71203 -2.04777,-11.4002 -3.02614,-11.4002 -0.99241,0 -1.10059,0.9834 -0.43029,3.91146 0.23177,1.01238 0.7389,4.27504 1.12695,7.25034 0.76772,5.88621 2.28452,9.95601 4.17134,11.19231 0.58197,0.38131 3.82218,1.5274 7.20046,2.54685 3.37829,1.01945 6.22263,1.93381 6.32074,2.03192 0.0981,0.0981 -0.35077,0.80725 -0.99752,1.57585 -2.32576,2.76401 -2.08484,3.93891 1.14563,5.58698 2.06717,1.05458 2.16225,1.425 0.58271,2.27034 -1.0507,0.56231 -1.66562,0.46877 -5.86718,-0.89254 -6.47834,-2.09901 -10.34853,-3.65818 -12.5164,-5.04249 -1.01237,-0.64645 -2.44724,-1.49379 -3.18859,-1.883 -1.1733,-0.61596 -1.74767,-1.76483 -4.43403,-8.86921 -1.69739,-4.48888 -3.63997,-10.18351 -4.31688,-12.65473 -1.55606,-5.68073 -1.92297,-6.56392 -2.72691,-6.56392 -0.76768,0 -1.20906,0.97834 -1.21071,2.68364 -0.002,2.69162 -2.41811,16.3995 -4.78303,27.14365 -3.29644,14.97599 -3.6286,17.69399 -3.72184,30.45525 -0.075,10.25641 -0.14349,11.03946 -1.32811,15.18567 -3.00496,10.51697 -6.04081,14.17403 -13.89929,16.74345 -5.56048,1.81806 -8.74536,1.97236 -19.860277,0.96223 z M 120.07344,245.6002 c 0.4154,-1.29006 1.16641,-5.52678 1.16641,-6.58009 0,-1.30634 -1.19306,-1.55364 -1.55572,-0.32249 -0.58247,1.9773 -1.22291,6.61687 -0.96989,7.02627 0.39008,0.63115 1.13805,0.56309 1.3592,-0.12366 z m 2.54693,-11.6593 c 0,-0.14853 0.32092,-2.87371 0.71317,-6.05595 0.58007,-4.706 0.60226,-5.85447 0.11897,-6.1532 -0.9985,-0.61711 -1.26403,0.12923 -1.98156,5.56941 -0.89129,6.75768 -0.88625,6.90978 0.22914,6.90978 0.50619,0 0.92035,-0.12158 0.92035,-0.27004 z m 24.64397,-33.82278 c 0.1701,-0.27515 0.1287,-0.68067 -0.0917,-0.90117 -0.54424,-0.54424 -1.74203,0.24798 -1.34536,0.88983 0.40198,0.65042 1.03901,0.65544 1.43709,0.0122 z m 57.57822,-11.28056 c 0.29051,-0.75707 -0.6693,-1.68179 -1.325,-1.27655 -0.2019,0.12488 -0.36709,0.62882 -0.36709,1.12007 0,1.07671 1.29308,1.1963 1.69209,0.15653 z m -2.15228,-11.66077 c 0,-0.49127 -0.16523,-0.9953 -0.3671,-1.12007 -0.65569,-0.40526 -1.6155,0.51947 -1.325,1.27654 0.39902,1.0398 1.6921,0.92023 1.6921,-0.15653 z M 161.96506,125.7685 c 10.08228,-1.19879 14.77571,-2.28155 27.66344,-6.38184 9.41901,-2.99671 19.98311,-5.87158 27.09702,-7.37408 3.96147,-0.8367 4.85246,-1.29114 4.0685,-2.0751 -0.8953,-0.8953 -17.6739,3.23617 -32.75337,8.065 -9.69553,3.10475 -16.68194,4.6678 -25.01789,5.59719 -3.61887,0.40347 -6.75845,0.89934 -6.97683,1.10196 -1.22456,1.13605 1.38356,1.60615 5.91913,1.06687 z m 39.52237,-17.88806 c 1.32375,-1.32375 -0.40963,-2.94419 -2.45498,-2.29502 -0.96361,0.30584 -1.6457,1.77513 -1.17651,2.5343 0.43899,0.7103 2.84012,0.55209 3.63149,-0.23928 z m 11.78681,-2.74773 c 0.80737,-0.97282 -0.18404,-2.07076 -1.86988,-2.07076 -1.50839,0 -1.98793,0.55986 -1.58009,1.8448 0.35355,1.11396 2.59137,1.26053 3.44997,0.22596 z m -52.67065,-1.55522 c 7.74153,-3.5165 5.24894,-13.40037 -3.37943,-13.40037 -2.73855,0 -5.01565,1.358185 -6.18746,3.690565 -1.07953,2.148648 -1.01418,3.985486 0.22937,6.447055 1.93284,3.826 5.41717,5.04352 9.33752,3.26275 z m -0.42987,-5.692473 c -0.53627,-0.855494 -0.0122,-2.19846 0.98959,-2.532132 0.74526,-0.248432 2.02539,1.920931 1.67396,2.836741 -0.37353,0.973431 -1.97737,0.790011 -2.66355,-0.304609 z m 55.26366,-3.221216 c 2.98967,-3.282384 2.52338,-7.434245 -1.17757,-10.484859 -2.27284,-1.873484 -4.68184,-1.880632 -6.54302,-0.01948 -1.18134,1.181321 -1.34427,1.671611 -1.33808,4.026497 0.003,1.474765 0.15914,2.909145 0.34513,3.187526 0.18594,0.278365 1.62931,1.081838 3.20748,1.785479 1.57816,0.703659 3.10484,1.563049 3.39259,1.909782 0.71201,0.857929 1.01631,0.799612 2.11347,-0.40498 z m -2.43409,-5.175904 c -0.44217,-1.761773 0.0619,-2.676226 1.1533,-2.09214 0.9871,0.528275 1.63997,2.050747 1.19097,2.777259 -0.56855,0.919932 -2.0501,0.486968 -2.34427,-0.685119 z m 3.03198,181.439853 c -2.90551,-4.2828 -7.49597,-6.92256 -16.31701,-9.38309 -1.69337,-0.47236 -3.25518,-1.27811 -4.0841,-2.10703 -1.16702,-1.16702 -1.30947,-1.58619 -1.0914,-3.21199 0.15635,-1.1651 0.72682,-2.36668 1.51379,-3.1881 1.22185,-1.27533 1.24587,-1.39737 0.73735,-3.74508 -1.97092,-9.09909 -1.59752,-13.72866 1.48506,-18.41308 0.7946,-1.20751 0.79502,-1.27407 0.0104,-1.57541 -1.08137,-0.41496 -2.56243,1.36317 -6.77024,8.12818 -3.9697,6.38218 -9.27111,11.96289 -13.67747,14.39806 -1.64511,0.90917 -4.95835,2.31371 -7.36275,3.12118 -3.88263,1.3039 -4.98932,1.47428 -9.8937,1.52301 l -5.52206,0.055 0.056,-2.07077 c 0.0308,-1.13891 0.21181,-5.38402 0.40229,-9.43352 0.2904,-6.1736 0.1803,-8.88633 -0.68161,-16.79628 -0.56537,-5.18844 -1.31587,-10.13181 -1.66777,-10.98529 -0.35189,-0.85345 -0.63981,-1.59496 -0.63981,-1.64778 0,-0.0529 2.58694,0.64546 5.74874,1.55174 3.1618,0.9063 5.75027,1.78936 5.75215,1.96236 0.002,0.17306 -0.62451,1.32465 -1.39195,2.55923 -1.8064,2.90588 -2.18087,5.12994 -1.13302,6.72916 0.43644,0.66611 1.1028,1.2111 1.48077,1.2111 0.48029,0 0.6116,0.31177 0.43611,1.03538 -0.1381,0.56946 -0.38418,1.58136 -0.54683,2.24867 -0.6845,2.8081 3.46657,4.11235 7.13386,2.24144 1.09947,-0.5609 1.90691,-0.73958 2.0796,-0.46017 0.48267,0.78099 3.85741,0.50195 5.77776,-0.47775 1.00745,-0.51396 4.28259,-3.27029 7.27809,-6.12519 4.58975,-4.37431 6.14807,-5.54603 9.90789,-7.44994 3.7956,-1.92202 4.93899,-2.28622 7.66056,-2.44 3.81057,-0.21532 4.97881,0.36934 6.52656,3.26624 0.90415,1.6923 1.0348,2.58539 0.99197,6.7808 -0.0492,4.81324 -0.64032,7.56857 -5.03532,23.46877 -0.44116,1.59604 -0.44744,2.20285 -0.0273,2.64689 0.29975,0.31685 2.79496,0.90786 5.54493,1.31335 4.14301,0.61088 5.83566,0.64995 9.87635,0.22792 6.91204,-0.72192 10.67129,-0.65576 11.90672,0.20956 1.64457,1.15191 1.20118,1.58456 -1.62326,1.58394 -3.48883,-7.8e-4 -10.23883,0.95569 -10.23883,1.45083 0,0.21474 0.0518,0.39782 0.11514,0.40684 0.0633,0.009 2.11092,0.19487 4.55032,0.41297 5.23815,0.46832 8.64534,1.87666 9.3445,3.86247 0.73489,2.08734 -0.2156,2.46854 -3.05911,1.22689 -2.12029,-0.92587 -3.366,-1.08763 -9.57024,-1.24286 -4.00553,-0.10018 -7.59068,-0.40681 -8.17735,-0.69931 -0.78313,-0.39042 -1.1787,-0.38682 -1.57992,0.0139 -0.29439,0.29439 -0.44551,0.59799 -0.33583,0.67467 0.10974,0.0767 1.37201,0.89856 2.80521,1.82638 3.00821,1.94746 4.98704,4.31007 4.98704,5.95425 0,2.6245 -1.66328,2.33582 -3.68138,-0.63891 z m -17.9467,-14.14123 c 0,-0.49124 -0.16523,-0.99527 -0.3671,-1.12006 -0.65569,-0.40524 -1.61552,0.51947 -1.325,1.27654 0.39901,1.03982 1.6921,0.92023 1.6921,-0.15653 z m 4.27903,-21.9461 c 0.72464,-0.72464 0.29452,-1.60984 -0.7127,-1.46679 -0.56946,0.0809 -1.03538,0.45483 -1.03538,0.83101 0,0.7311 1.21196,1.17189 1.74808,0.63578 z m -8.98373,-3.93177 c 0.39799,-0.398 0.4062,-0.70398 0.031,-1.1561 -0.64584,-0.7782 -1.83513,0.0684 -1.46201,1.04074 0.30634,0.79833 0.71512,0.83127 1.43104,0.11531 z m 12.78249,-7.32176 c 0.40158,-0.64976 -0.48535,-1.53669 -1.13512,-1.13511 -0.72984,0.45107 -0.61192,1.63538 0.16279,1.63538 0.3647,0 0.80222,-0.22513 0.97228,-0.50027 z m -99.0345,-103.29214 c -0.36289,-0.94567 2.52806,-6.66356 5.05941,-10.00676 3.91672,-5.1729 8.77102,-10.518097 15.31664,-16.865583 3.63922,-3.529042 6.61675,-6.63479 6.61675,-6.90164 0,-1.12144 -1.55793,-0.304801 -4.78071,2.505938 -1.88629,1.645105 -3.66702,2.991115 -3.95717,2.991115 -0.61108,0 -0.24696,-1.535412 0.73279,-3.089973 0.95357,-1.513028 0.79832,-1.89832 -0.82913,-2.057808 -1.23611,-0.12105 -1.65218,-0.496325 -2.60106,-2.345442 -2.66417,-5.191814 -1.52857,-13.905544 2.94362,-22.587271 1.38018,-2.679305 2.50943,-4.979753 2.50943,-5.112109 0,-0.132355 -0.38125,-0.24064 -0.84721,-0.24064 -0.55092,0 -1.29977,0.844884 -2.14128,2.415898 -0.71172,1.328757 -1.3646,2.50093 -1.45083,2.604832 -0.39042,0.470497 -2.23112,-1.78294 -3.16144,-3.870297 -1.61894,-3.632527 -4.16805,-11.92477 -5.51695,-17.946706 -0.99291,-4.43273 -1.20122,-6.361765 -1.05595,-9.778644 0.11165,-2.628294 0.007,-4.256598 -0.27531,-4.256598 -0.25095,0 -1.03489,0.554363 -1.74212,1.231933 -0.70722,0.677553 -1.39114,1.126623 -1.51984,0.997937 -0.24703,-0.247023 -1.09895,-3.809824 -2.3116,-9.66709 -0.53801,-2.598744 -1.26303,-4.353108 -2.75752,-6.672496 -1.11518,-1.7307001 -1.82725,-3.2166361 -1.58239,-3.3020724 1.44214,-0.5031983 12.52924,7.8976814 19.92879,15.1003654 3.25614,3.169491 8.32953,8.452097 11.27423,11.739124 9.52421,10.631442 9.6845,10.779694 12.43562,11.500815 2.81117,0.736861 5.1129,2.64426 5.1129,4.236944 0,1.03667 -0.11218,1.064341 -4.31527,1.064341 -3.15342,0 -4.46039,0.174811 -4.85417,0.649291 -0.81984,0.987849 -0.13861,1.145267 4.98309,1.151354 5.63578,0.007 7.79208,0.807735 12.46945,4.63229 3.42719,2.802321 7.36275,6.510278 7.36275,6.936929 0,0.159313 -1.24493,0.666508 -2.76653,1.127214 -4.59406,1.390968 -4.87648,3.165577 -0.31778,1.996795 1.70468,-0.437051 5.97181,-0.614401 14.8187,-0.615879 10.70989,-0.0017 12.6628,0.105745 14.1503,0.77975 0.9491,0.430008 1.72563,1.064271 1.72563,1.409474 0,1.504819 -3.76379,4.119094 -14.38996,9.995022 l -7.71747,4.267499 -1.94615,-0.753505 c -3.18844,-1.234507 -3.47728,-1.512698 -2.40407,-2.315423 2.54594,-1.904213 9.76507,-5.43449 14.2631,-6.974893 5.18162,-1.774487 6.21232,-2.280795 6.21232,-3.051605 0,-1.036113 -9.08998,1.903242 -19.55731,6.324093 -7.27067,3.070754 -7.42922,3.113466 -12.67772,3.415501 -4.22101,0.242919 -5.7777,0.529875 -7.56309,1.394169 -3.12201,1.511341 -8.54088,6.788799 -10.27526,10.007144 -1.46162,2.712177 -2.54146,3.717019 -10.89941,10.142487 -7.96572,6.12395 -15.59855,13.41677 -14.83814,14.1772 0.11983,0.11983 1.85081,-0.30362 3.84663,-0.94096 5.36423,-1.71302 7.16125,-1.4668 4.51078,0.61806 -1.27431,1.00237 -7.38556,3.49044 -10.20874,4.15629 -2.79927,0.6602 -4.70657,0.57783 -5.01135,-0.21641 z m 24.55205,-36.731722 c 1.39942,-1.287189 1.6357,-1.726189 1.17812,-2.188912 -0.45896,-0.464131 -0.96039,-0.306087 -2.53095,0.797752 -1.07721,0.757088 -1.95856,1.674463 -1.95856,2.038606 0,1.261848 1.56924,0.95503 3.31139,-0.647446 z m 41.55882,-11.106684 c 0.43445,-0.523474 0.46226,-0.864625 0.10001,-1.226872 -0.69809,-0.698093 -2.04407,-0.08661 -1.86312,0.84638 0.20664,1.065524 1.04452,1.246334 1.76311,0.380492 z m 9.17877,-1.568492 c 2.45665,-0.996041 2.94927,-1.878632 1.04857,-1.878632 -2.20869,0 -4.24856,0.905392 -4.24856,1.885711 0,1.067575 0.55245,1.066358 3.19999,-0.007 z m -22.06704,-1.369228 c 0,-0.536675 -1.34406,-1.04641 -1.88221,-0.713816 -0.81106,0.501247 -0.4054,1.124762 0.73178,1.124762 0.63273,0 1.15043,-0.184933 1.15043,-0.410946 z m -35.89341,-14.04613 c 0,-0.400736 -0.32788,-0.728599 -0.7286,-0.728599 -0.40073,0 -0.64664,0.24591 -0.54646,0.546449 0.28443,0.853268 1.27506,0.994789 1.27506,0.18215 z"
       id="path1"
       sodipodi:nodetypes="cssssssssscssssssssssssssssssssssccsssssssssssssssssssssssssscssssssssssssssssscsssssscsssssssscssssssssssssssssssscssssssssssssssssssssssssscsscssssssssssssssssccsccsssssssssssssssscssssssssssssssscssssscssssssssscsssssscsssscsssssscsssssssssssssssssssscssssscsssccsssssssssssssssssssssssssscssssssssssssssssssssscsssssssscssssssssssssssssssssssscssccssssssss" /></g></svg>
