<?xml version="1.0" encoding="UTF-8" standalone="no"?>
<!DOCTYPE svg PUBLIC "-//W3C//DTD SVG 1.1//EN" "http://www.w3.org/Graphics/SVG/1.1/DTD/svg11.dtd">
<svg width="100%" height="100%" viewBox="0 0 1920 1920" version="1.1" xmlns="http://www.w3.org/2000/svg" xmlns:xlink="http://www.w3.org/1999/xlink" xml:space="preserve" xmlns:serif="http://www.serif.com/" style="fill-rule:evenodd;clip-rule:evenodd;stroke-linejoin:round;stroke-miterlimit:2;">
    <g transform="matrix(2.441063,0,0,2.441063,-289.933192,-288.32488)">
        <path d="M660.692,796.841C648.817,803.343 515.452,876.37 511.521,876.763C511.001,876.815 310.619,876.805 310.46,876.785C308.65,876.558 308.512,875.529 308.506,874.5C308.262,828.74 309.651,828.793 308.538,302.5C308.526,296.526 307.172,292.092 311.509,290.524C364.356,271.415 365.106,270.366 661.4,161.219C680.005,154.366 679.884,154.289 698.493,147.48C713.126,142.125 715.891,140.293 715.932,143.447C715.967,146.088 715.909,706.536 715.903,755.5C715.903,763.441 717.197,766.333 712.255,769.059C705.67,772.691 664.821,794.624 660.692,796.841Z" style="fill:rgb(242,251,91);"/>
        <g transform="matrix(1.392469,0,0,1.392469,-201.038602,-305.034033)">
            <path d="M613.397,678.5C613.133,726.792 613.655,727.466 611.629,728.7C611.506,728.774 580.878,743.837 520.332,774.162C519.75,774.453 513.404,777.632 512.768,777.174C511.958,776.591 512.352,776.283 512.25,529.501C512.246,519.954 515.979,521.861 524.372,517.263C526.594,516.046 551.325,502.5 552.493,502.72C553.776,502.961 553.457,503.64 553.599,534.5C553.836,586.253 552.971,623.479 554.306,623.945C555.785,624.461 555.822,623.974 571.196,614.037C580.743,607.867 582.352,605.478 586.2,607.947C613.152,625.241 613.435,625.768 613.484,628.501C613.548,632.024 613.407,661.449 613.397,678.5Z" style="fill:rgb(32,32,32);"/>
        </g>
    </g>
</svg>
